<?xml version="1.0" encoding="UTF-8"?>
<svg id="Capa_1" xmlns="http://www.w3.org/2000/svg" version="1.1" viewBox="0 0 500 500">
  <!-- Generator: Adobe Illustrator 30.2.1, SVG Export Plug-In . SVG Version: 2.1.1 Build 1)  -->
  <defs>
    <style>
      .st0 {
        fill: #3bbcbc;
      }

      .st1 {
        fill: #f98306;
      }

      .st2 {
        isolation: isolate;
      }
    </style>
  </defs>
  <g class="st2">
    <g class="st2">
      <path class="st1" d="M209.04,199.35c-1.26-.41-2.33-.99-3.2-1.75-.87-.76-1.54-1.66-2-2.72s-.69-2.19-.69-3.43.24-2.36.73-3.43c.49-1.07,1.18-1.99,2.08-2.75.9-.77,1.99-1.36,3.26-1.78s2.65-.63,4.14-.63c.95,0,1.96.11,3.01.34s2.04.64,2.95,1.24c-.14.68-.48,1.36-1.01,2.03s-1.16,1.17-1.88,1.5c-.89-.53-1.86-.8-2.89-.8-1.43,0-2.55.38-3.35,1.14-.8.76-1.21,1.81-1.21,3.14s.4,2.34,1.21,3.12c.8.78,1.89,1.16,3.26,1.16s2.47-.35,3.37-1.05c.81.42,1.46.92,1.94,1.5s.8,1.3.98,2.15c-1.59,1.08-3.77,1.63-6.55,1.63-1.51,0-2.89-.2-4.16-.61Z"/>
      <path class="st1" d="M227.31,199.37c-1.27-.4-2.36-.98-3.28-1.73-.91-.75-1.62-1.66-2.13-2.72-.51-1.06-.76-2.22-.76-3.49s.25-2.41.76-3.47c.51-1.06,1.22-1.97,2.13-2.73.91-.76,2.01-1.34,3.28-1.75s2.63-.61,4.08-.61,2.81.2,4.08.6,2.36.97,3.28,1.71c.91.74,1.62,1.65,2.13,2.71.51,1.07.76,2.24.76,3.53s-.25,2.38-.76,3.44c-.51,1.06-1.22,1.97-2.13,2.73-.91.76-2.01,1.34-3.28,1.75s-2.63.61-4.08.61-2.81-.2-4.08-.6ZM234.61,194.56c.79-.77,1.19-1.81,1.19-3.13s-.4-2.41-1.19-3.17c-.79-.76-1.87-1.14-3.22-1.14s-2.42.38-3.22,1.14c-.79.76-1.19,1.81-1.19,3.17s.4,2.36,1.19,3.13c.79.77,1.87,1.15,3.22,1.15s2.42-.38,3.22-1.15Z"/>
      <path class="st1" d="M258.26,197.51c0,.73-.08,1.39-.24,1.98h-12.84v-16.07c.95-.13,1.85-.2,2.68-.2s1.73.07,2.68.2v12.01h7.48c.16.62.24,1.31.24,2.08Z"/>
      <path class="st1" d="M274.97,197.49c0,.73-.08,1.4-.24,2h-13.28v-16.07h13.02c.16.58.24,1.24.24,1.98s-.08,1.4-.24,2h-7.65v1.98h6.79c.16.58.24,1.24.24,1.98s-.08,1.37-.24,1.95h-6.79v2.2h7.92c.16.58.24,1.24.24,1.98Z"/>
      <path class="st1" d="M294.77,191.46v7.23c-.91.38-1.91.69-2.99.93-1.08.23-2.42.35-4.01.35s-3.03-.2-4.32-.6-2.38-.97-3.26-1.71c-.88-.74-1.56-1.64-2.03-2.69-.47-1.05-.7-2.19-.7-3.43s.25-2.39.75-3.45,1.2-1.99,2.11-2.77c.91-.78,2.03-1.38,3.34-1.8s2.74-.64,4.29-.64c1.27,0,2.45.12,3.54.38,1.09.25,2.03.58,2.8,1-.14.73-.47,1.46-1,2.16s-1.17,1.24-1.92,1.59c-.46-.25-1-.45-1.64-.6-.63-.15-1.26-.23-1.88-.23-1.43,0-2.55.38-3.35,1.14-.8.76-1.21,1.81-1.21,3.14s.4,2.34,1.21,3.12c.8.78,1.89,1.16,3.26,1.16.62,0,1.16-.02,1.64-.07v-4.2c.95-.13,1.85-.2,2.68-.2s1.73.07,2.68.2Z"/>
      <path class="st1" d="M298.68,199.49v-16.02c.77-.12,1.65-.18,2.62-.18s1.85.06,2.74.18v16.02c-.77.12-1.65.18-2.62.18s-1.85-.06-2.74-.18Z"/>
      <path class="st1" d="M313.75,199.37c-1.27-.4-2.36-.98-3.28-1.73-.91-.75-1.62-1.66-2.13-2.72-.51-1.06-.76-2.22-.76-3.49s.25-2.41.76-3.47c.51-1.06,1.22-1.97,2.13-2.73.91-.76,2-1.34,3.28-1.75s2.63-.61,4.08-.61,2.81.2,4.08.6,2.36.97,3.28,1.71c.91.74,1.62,1.65,2.13,2.71.51,1.07.76,2.24.76,3.53s-.25,2.38-.76,3.44c-.51,1.06-1.22,1.97-2.13,2.73-.91.76-2.01,1.34-3.28,1.75s-2.63.61-4.08.61-2.81-.2-4.08-.6ZM321.04,194.56c.79-.77,1.19-1.81,1.19-3.13s-.4-2.41-1.19-3.17c-.79-.76-1.87-1.14-3.22-1.14s-2.42.38-3.22,1.14c-.79.76-1.19,1.81-1.19,3.17s.4,2.36,1.19,3.13c.79.77,1.87,1.15,3.22,1.15s2.42-.38,3.22-1.15Z"/>
    </g>
    <g class="st2">
      <path class="st1" d="M224.69,211v16.02c-.81.12-1.62.18-2.41.18-.73,0-1.56-.06-2.47-.18v-6.86l.12-2.28-.86,2.25-2.35,5.61c-.69.08-1.43.13-2.2.13s-1.48-.04-2.23-.13l-2.56-5.61-.83-1.98.12,2v6.86c-.81.12-1.65.18-2.5.18-.71,0-1.52-.06-2.41-.18v-16.02c.79-.12,1.66-.18,2.59-.18,1.07,0,2.1.06,3.1.18l4.53,9.08.36.8.3-.8,4.11-9.08c1.03-.12,2.02-.18,2.95-.18s1.83.06,2.68.18Z"/>
      <path class="st1" d="M229.19,227.02v-16.02c.77-.12,1.65-.18,2.62-.18s1.85.06,2.74.18v16.02c-.77.12-1.65.18-2.62.18s-1.85-.06-2.74-.18Z"/>
      <path class="st1" d="M252.12,225.04c0,.73-.08,1.39-.24,1.98h-12.84v-16.07c.95-.13,1.85-.2,2.68-.2s1.73.07,2.68.2v12.01h7.48c.16.62.24,1.31.24,2.08Z"/>
      <path class="st1" d="M255.31,227.02v-16.02c.77-.12,1.65-.18,2.62-.18s1.85.06,2.74.18v16.02c-.77.12-1.65.18-2.62.18s-1.85-.06-2.74-.18Z"/>
      <path class="st1" d="M278.27,214.93h-5.15v12.09c-.95.13-1.85.2-2.68.2s-1.73-.07-2.68-.2v-12.09h-5.15c-.16-.58-.24-1.24-.24-1.98s.08-1.42.24-2h15.67c.16.58.24,1.24.24,1.98s-.08,1.4-.24,2Z"/>
      <path class="st1" d="M297.07,226.84c-1.33.2-2.5.3-3.52.3-.6,0-1.21-.04-1.85-.12l-1.13-2.58h-6.7l-1.13,2.58c-.71.07-1.53.1-2.44.1-1.15,0-2.08-.09-2.8-.28l7.18-15.89c.71-.1,1.63-.15,2.74-.15,1.03,0,1.91.05,2.62.15l7.03,15.89ZM288.97,220.71l-1.13-2.58-.6-1.6-.57,1.6-1.13,2.58h3.43Z"/>
      <path class="st1" d="M316.25,226.84c-1.01.23-2.58.35-4.71.35l-1.16-.03-3.63-5.35h-1.7v5.21c-.77.12-1.65.18-2.62.18s-1.85-.06-2.74-.18v-15.82c.93-.15,2.03-.28,3.28-.38s2.4-.15,3.46-.15c1.87,0,3.42.19,4.68.58,1.25.38,2.22.96,2.9,1.73.69.77,1.03,1.77,1.03,3,0,1.08-.28,2.04-.83,2.85-.56.82-1.32,1.47-2.29,1.95l4.35,6.06ZM305.05,218.16h1.94c.42,0,.83-.06,1.25-.19.42-.12.74-.34.97-.64.23-.3.34-.65.34-1.05,0-.57-.22-1.02-.67-1.35-.45-.33-1.09-.5-1.92-.5l-1.91.05v3.68Z"/>
      <path class="st1" d="M319.23,227.02v-16.02c.77-.12,1.65-.18,2.62-.18s1.85.06,2.74.18v16.02c-.77.12-1.65.18-2.62.18s-1.85-.06-2.74-.18Z"/>
      <path class="st1" d="M344.31,224.99c0,.63-.08,1.31-.24,2.03h-15.73c-.14-.23-.21-.58-.21-1.03,0-.37.09-.76.28-1.19.19-.43.44-.82.76-1.19l6.49-7.86.69-.8-7.98.03c-.14-.6-.21-1.28-.21-2.03s.07-1.4.21-2h15.46c.14.28.21.63.21,1.03,0,.37-.09.76-.28,1.19s-.44.82-.76,1.19l-6.34,7.66-.95.98h8.37c.16.72.24,1.38.24,2Z"/>
      <path class="st1" d="M364.98,226.84c-1.33.2-2.5.3-3.51.3-.6,0-1.21-.04-1.85-.12l-1.13-2.58h-6.7l-1.13,2.58c-.71.07-1.53.1-2.44.1-1.15,0-2.08-.09-2.8-.28l7.18-15.89c.71-.1,1.63-.15,2.74-.15,1.03,0,1.91.05,2.62.15l7.03,15.89ZM356.88,220.71l-1.13-2.58-.6-1.6-.57,1.6-1.13,2.58h3.43Z"/>
      <path class="st1" d="M378.9,211.17c1.38.39,2.54.95,3.47,1.66.93.72,1.64,1.58,2.13,2.6.49,1.02.73,2.13.73,3.33,0,1.33-.26,2.54-.79,3.62-.53,1.08-1.28,1.98-2.25,2.72-.97.73-2.14,1.29-3.5,1.68-1.36.38-2.84.58-4.45.58-2.5,0-4.72-.11-6.64-.33v-16.02c1.77-.28,3.98-.43,6.64-.43,1.73,0,3.28.2,4.66.59ZM378.03,221.98c.85-.76,1.28-1.81,1.28-3.14,0-1.23-.43-2.21-1.28-2.94-.85-.73-2.02-1.09-3.49-1.09l-1.58.02v8.26l1.58.02c1.47,0,2.63-.38,3.49-1.14Z"/>
      <path class="st1" d="M394.02,226.9c-1.27-.4-2.36-.98-3.28-1.73-.91-.75-1.62-1.66-2.13-2.71-.51-1.06-.76-2.22-.76-3.49s.25-2.41.76-3.47c.51-1.06,1.22-1.97,2.13-2.73.91-.76,2-1.34,3.28-1.75s2.63-.61,4.08-.61,2.81.2,4.08.6,2.36.97,3.28,1.71c.91.74,1.62,1.65,2.13,2.71.51,1.07.76,2.24.76,3.53s-.25,2.38-.76,3.44c-.51,1.06-1.22,1.97-2.13,2.73-.91.76-2.01,1.34-3.28,1.75s-2.63.61-4.08.61-2.81-.2-4.08-.6ZM401.32,222.09c.79-.77,1.19-1.81,1.19-3.13s-.4-2.41-1.19-3.17c-.79-.76-1.87-1.14-3.22-1.14s-2.42.38-3.22,1.14c-.79.76-1.19,1.81-1.19,3.17s.4,2.36,1.19,3.13c.79.77,1.87,1.15,3.22,1.15s2.42-.38,3.22-1.15Z"/>
    </g>
    <g class="st2">
      <path class="st1" d="M220.46,246.53v7.23c-.91.38-1.91.69-2.99.93-1.08.23-2.42.35-4.01.35s-3.03-.2-4.32-.6-2.38-.97-3.26-1.71c-.88-.74-1.56-1.64-2.03-2.69-.47-1.05-.7-2.19-.7-3.43s.25-2.39.74-3.45,1.2-1.99,2.11-2.77,2.03-1.38,3.34-1.8,2.74-.64,4.29-.64c1.27,0,2.45.12,3.54.38,1.09.25,2.03.58,2.8,1-.14.73-.47,1.46-1,2.16-.53.71-1.17,1.24-1.92,1.59-.46-.25-1-.45-1.64-.6-.64-.15-1.26-.23-1.88-.23-1.43,0-2.55.38-3.35,1.14-.8.76-1.21,1.81-1.21,3.14s.4,2.34,1.21,3.12c.8.78,1.89,1.16,3.26,1.16.62,0,1.16-.03,1.64-.08v-4.2c.95-.13,1.85-.2,2.68-.2s1.73.07,2.68.2Z"/>
      <path class="st1" d="M237.88,252.56c0,.73-.08,1.4-.24,2h-13.28v-16.07h13.02c.16.58.24,1.24.24,1.98s-.08,1.4-.24,2h-7.65v1.98h6.79c.16.58.24,1.24.24,1.98s-.08,1.37-.24,1.95h-6.79v2.2h7.92c.16.58.24,1.24.24,1.98Z"/>
      <path class="st1" d="M258.85,238.54v15.97c-1.63.25-3.37.32-5.21.2l-6.14-7.83-.69-1.03.15,1.28v7.43c-1.07.12-1.98.17-2.71.17-.56,0-1.44-.06-2.65-.17v-15.94c.66-.15,1.49-.24,2.5-.28s1.92-.02,2.71.05l6.14,8.16.68,1.03-.15-1.28v-7.76c.91-.12,1.79-.18,2.62-.18.93,0,1.85.06,2.74.18Z"/>
      <path class="st1" d="M276.87,252.56c0,.73-.08,1.4-.24,2h-13.28v-16.07h13.02c.16.58.24,1.24.24,1.98s-.08,1.4-.24,2h-7.65v1.98h6.79c.16.58.24,1.24.24,1.98s-.08,1.37-.24,1.95h-6.79v2.2h7.92c.16.58.24,1.24.24,1.98Z"/>
      <path class="st1" d="M297.16,254.38c-1.01.23-2.58.35-4.71.35l-1.16-.03-3.63-5.35h-1.7v5.21c-.78.12-1.65.17-2.62.17s-1.85-.06-2.74-.17v-15.82c.93-.15,2.03-.28,3.28-.38,1.25-.1,2.4-.15,3.46-.15,1.87,0,3.43.19,4.68.58,1.25.38,2.22.96,2.9,1.73.68.77,1.03,1.77,1.03,3,0,1.08-.28,2.04-.83,2.85s-1.32,1.47-2.29,1.95l4.35,6.06ZM285.96,245.7h1.94c.42,0,.83-.06,1.25-.19s.74-.34.97-.64.34-.65.34-1.05c0-.57-.22-1.02-.67-1.35-.45-.33-1.09-.5-1.92-.5l-1.91.05v3.68Z"/>
      <path class="st1" d="M317.38,254.38c-1.33.2-2.5.3-3.51.3-.6,0-1.21-.04-1.85-.12l-1.13-2.58h-6.7l-1.13,2.58c-.71.07-1.53.1-2.44.1-1.15,0-2.09-.09-2.8-.28l7.18-15.89c.71-.1,1.63-.15,2.74-.15,1.03,0,1.91.05,2.62.15l7.03,15.89ZM309.28,248.25l-1.13-2.58-.6-1.6-.57,1.6-1.13,2.58h3.42Z"/>
      <path class="st1" d="M333.08,252.58c0,.73-.08,1.39-.24,1.98h-12.84v-16.07c.95-.13,1.85-.2,2.68-.2s1.73.07,2.68.2v12.01h7.48c.16.62.24,1.31.24,2.08Z"/>
      <path class="st1" d="M362.92,238.54v16.02c-.81.12-1.62.17-2.41.17-.74,0-1.56-.06-2.47-.17v-6.86l.12-2.28-.86,2.25-2.35,5.6c-.7.08-1.43.13-2.2.13s-1.48-.04-2.23-.13l-2.56-5.6-.83-1.98.12,2v6.86c-.81.12-1.65.17-2.5.17-.71,0-1.52-.06-2.41-.17v-16.02c.79-.12,1.66-.18,2.59-.18,1.07,0,2.1.06,3.1.18l4.53,9.08.36.8.3-.8,4.11-9.08c1.03-.12,2.02-.18,2.95-.18s1.83.06,2.68.18Z"/>
      <path class="st1" d="M384.67,254.38c-1.33.2-2.5.3-3.51.3-.6,0-1.21-.04-1.85-.12l-1.13-2.58h-6.7l-1.13,2.58c-.71.07-1.53.1-2.44.1-1.15,0-2.09-.09-2.8-.28l7.18-15.89c.71-.1,1.63-.15,2.74-.15,1.03,0,1.91.05,2.62.15l7.03,15.89ZM376.57,248.25l-1.13-2.58-.6-1.6-.57,1.6-1.13,2.58h3.42Z"/>
      <path class="st1" d="M403.85,254.38c-1.01.23-2.58.35-4.71.35l-1.16-.03-3.63-5.35h-1.7v5.21c-.78.12-1.65.17-2.62.17s-1.85-.06-2.74-.17v-15.82c.93-.15,2.03-.28,3.28-.38,1.25-.1,2.4-.15,3.46-.15,1.87,0,3.43.19,4.68.58,1.25.38,2.22.96,2.9,1.73.68.77,1.03,1.77,1.03,3,0,1.08-.28,2.04-.83,2.85s-1.32,1.47-2.29,1.95l4.35,6.06ZM392.65,245.7h1.94c.42,0,.83-.06,1.25-.19s.74-.34.97-.64.34-.65.34-1.05c0-.57-.22-1.02-.67-1.35-.45-.33-1.09-.5-1.92-.5l-1.91.05v3.68Z"/>
      <path class="st1" d="M406.83,254.56v-16.02c.77-.12,1.65-.18,2.62-.18s1.85.06,2.74.18v16.02c-.78.12-1.65.17-2.62.17s-1.85-.06-2.74-.17Z"/>
      <path class="st1" d="M433.93,254.38c-1.33.2-2.5.3-3.51.3-.6,0-1.21-.04-1.85-.12l-1.13-2.58h-6.7l-1.13,2.58c-.71.07-1.53.1-2.44.1-1.15,0-2.08-.09-2.8-.28l7.18-15.89c.71-.1,1.63-.15,2.74-.15,1.03,0,1.91.05,2.62.15l7.03,15.89ZM425.83,248.25l-1.13-2.58-.6-1.6-.57,1.6-1.13,2.58h3.42Z"/>
      <path class="st1" d="M453.8,238.54v15.97c-1.63.25-3.37.32-5.21.2l-6.14-7.83-.69-1.03.15,1.28v7.43c-1.07.12-1.98.17-2.71.17-.56,0-1.44-.06-2.65-.17v-15.94c.66-.15,1.49-.24,2.5-.28s1.92-.02,2.71.05l6.14,8.16.68,1.03-.15-1.28v-7.76c.91-.12,1.79-.18,2.62-.18.93,0,1.85.06,2.74.18Z"/>
      <path class="st1" d="M463.51,254.44c-1.27-.4-2.36-.98-3.28-1.73s-1.62-1.66-2.13-2.71c-.51-1.06-.76-2.22-.76-3.49s.25-2.41.76-3.47c.51-1.06,1.22-1.97,2.13-2.73.91-.76,2-1.34,3.28-1.75s2.63-.61,4.08-.61,2.81.2,4.08.6,2.36.97,3.28,1.71c.91.74,1.62,1.65,2.13,2.71.51,1.07.76,2.24.76,3.53s-.25,2.38-.76,3.44c-.51,1.06-1.22,1.97-2.13,2.73s-2.01,1.34-3.28,1.75c-1.27.41-2.63.61-4.08.61s-2.81-.2-4.08-.6ZM470.81,249.63c.79-.77,1.19-1.81,1.19-3.13s-.4-2.41-1.19-3.17c-.79-.76-1.87-1.14-3.22-1.14s-2.42.38-3.22,1.14c-.79.76-1.19,1.81-1.19,3.17s.4,2.36,1.19,3.13c.79.77,1.87,1.15,3.22,1.15s2.42-.38,3.22-1.15Z"/>
    </g>
    <g class="st2">
      <path class="st1" d="M217.6,280.09c0,.73-.08,1.4-.24,2h-13.28v-16.07h13.02c.16.58.24,1.24.24,1.98s-.08,1.4-.24,2h-7.65v1.98h6.79c.16.58.24,1.24.24,1.98s-.08,1.37-.24,1.95h-6.79v2.2h7.92c.16.58.24,1.24.24,1.98Z"/>
      <path class="st1" d="M225.15,282.28c-1.02-.14-1.97-.37-2.83-.69-.86-.32-1.56-.66-2.1-1.03.06-.77.3-1.49.73-2.15.43-.67.96-1.16,1.59-1.48.68.4,1.53.74,2.58,1.01,1.04.28,2.1.41,3.17.41.83,0,1.43-.07,1.8-.2.37-.13.55-.33.55-.6,0-.37-.25-.65-.76-.84-.51-.19-1.45-.44-2.84-.74-1.71-.35-2.99-.77-3.84-1.25-.85-.48-1.46-1.04-1.82-1.68-.36-.63-.54-1.34-.54-2.13s.18-1.53.55-2.2c.37-.67.9-1.23,1.59-1.7s1.53-.82,2.5-1.06c.97-.24,2.04-.36,3.19-.36.77,0,1.62.06,2.53.19.91.12,1.76.33,2.53.61s1.39.58,1.85.88c-.06.73-.3,1.44-.71,2.12-.42.67-.98,1.19-1.7,1.54-.56-.33-1.27-.62-2.14-.85s-1.8-.35-2.77-.35c-.71,0-1.27.07-1.65.21-.39.14-.58.34-.58.59,0,.07.02.16.04.28.03.12.19.25.49.4.3.15,1.4.42,3.31.8,2.1.43,3.61,1.05,4.53,1.85s1.39,1.79,1.43,2.95c.02.9-.14,1.71-.48,2.43s-.84,1.31-1.5,1.79c-.67.48-1.48.84-2.44,1.09-.96.25-2.04.38-3.23.38-.99,0-2-.07-3.02-.21Z"/>
      <path class="st1" d="M244.45,281.95c-1.26-.41-2.33-.99-3.2-1.75-.87-.76-1.54-1.67-2-2.72s-.69-2.19-.69-3.43.24-2.36.73-3.43c.49-1.07,1.18-1.99,2.08-2.75.9-.77,1.99-1.36,3.26-1.78,1.27-.42,2.65-.63,4.14-.63.95,0,1.96.11,3.01.34,1.05.23,2.04.64,2.95,1.24-.14.68-.48,1.36-1.01,2.03s-1.16,1.17-1.88,1.5c-.89-.53-1.86-.8-2.89-.8-1.43,0-2.55.38-3.35,1.14-.8.76-1.21,1.81-1.21,3.14s.4,2.34,1.21,3.12c.8.78,1.89,1.16,3.26,1.16s2.47-.35,3.37-1.05c.81.42,1.46.92,1.94,1.5s.8,1.3.98,2.15c-1.59,1.08-3.77,1.63-6.55,1.63-1.51,0-2.89-.2-4.16-.61Z"/>
      <path class="st1" d="M262.73,281.96c-1.27-.4-2.36-.98-3.28-1.73-.91-.75-1.62-1.66-2.13-2.71-.51-1.06-.76-2.22-.76-3.49s.25-2.41.76-3.47c.51-1.06,1.22-1.97,2.13-2.73.91-.76,2.01-1.34,3.28-1.75s2.63-.61,4.08-.61,2.81.2,4.08.6,2.36.97,3.28,1.71c.91.74,1.62,1.65,2.13,2.71.51,1.07.76,2.24.76,3.53s-.25,2.38-.76,3.44c-.51,1.06-1.22,1.97-2.13,2.73-.91.76-2,1.34-3.28,1.75s-2.63.61-4.08.61-2.81-.2-4.08-.6ZM270.02,277.16c.79-.77,1.19-1.81,1.19-3.13s-.4-2.41-1.19-3.17c-.79-.76-1.87-1.14-3.22-1.14s-2.42.38-3.22,1.14c-.79.76-1.19,1.81-1.19,3.17s.4,2.36,1.19,3.13c.79.77,1.87,1.15,3.22,1.15s2.42-.38,3.22-1.15Z"/>
      <path class="st1" d="M294.43,274.98c.53.4.89.85,1.09,1.34s.3.96.3,1.39c0,.73-.16,1.4-.48,2-.32.6-.82,1.12-1.5,1.55-.69.43-1.58.77-2.7,1-1.11.23-2.41.35-3.9.35-1.07,0-2.23-.05-3.47-.15-1.24-.1-2.31-.22-3.2-.38v-15.79c.89-.15,1.96-.27,3.19-.38,1.23-.1,2.35-.15,3.37-.15,5.26,0,7.89,1.59,7.89,4.75,0,1.74-.82,2.9-2.47,3.5.73.23,1.37.55,1.89.95ZM285.93,269.38v2.95h1.7c.73,0,1.27-.13,1.61-.39.34-.26.51-.65.51-1.16,0-.45-.19-.81-.57-1.06-.38-.26-.93-.39-1.67-.39l-1.58.05ZM290.34,277.38c0-.5-.2-.9-.61-1.19-.41-.29-1.03-.44-1.86-.44h-1.94v3.25l2.03.05c1.59,0,2.38-.56,2.38-1.68Z"/>
      <path class="st1" d="M312.82,280.09c0,.73-.08,1.4-.24,2h-13.28v-16.07h13.02c.16.58.24,1.24.24,1.98s-.08,1.4-.24,2h-7.65v1.98h6.79c.16.58.24,1.24.24,1.98s-.08,1.37-.24,1.95h-6.79v2.2h7.92c.16.58.24,1.24.24,1.98Z"/>
      <path class="st1" d="M327.85,266.24c1.38.39,2.54.95,3.47,1.66.93.72,1.64,1.59,2.13,2.6s.73,2.13.73,3.33c0,1.33-.26,2.54-.79,3.62s-1.28,1.98-2.25,2.72c-.97.73-2.14,1.29-3.5,1.68-1.36.38-2.84.58-4.45.58-2.5,0-4.71-.11-6.64-.33v-16.02c1.77-.28,3.98-.43,6.64-.43,1.73,0,3.28.2,4.66.59ZM326.97,277.05c.85-.76,1.28-1.8,1.28-3.14,0-1.23-.43-2.21-1.28-2.94-.85-.73-2.02-1.09-3.48-1.09l-1.58.02v8.26l1.58.02c1.47,0,2.63-.38,3.48-1.14Z"/>
      <path class="st1" d="M342.97,281.96c-1.27-.4-2.36-.98-3.28-1.73-.91-.75-1.62-1.66-2.13-2.71-.51-1.06-.76-2.22-.76-3.49s.25-2.41.76-3.47c.51-1.06,1.22-1.97,2.13-2.73.91-.76,2-1.34,3.28-1.75,1.27-.41,2.63-.61,4.08-.61s2.81.2,4.08.6c1.27.4,2.36.97,3.28,1.71.91.74,1.62,1.65,2.13,2.71.51,1.07.76,2.24.76,3.53s-.25,2.38-.76,3.44c-.51,1.06-1.22,1.97-2.13,2.73-.91.76-2,1.34-3.28,1.75-1.27.41-2.63.61-4.08.61s-2.81-.2-4.08-.6ZM350.26,277.16c.79-.77,1.19-1.81,1.19-3.13s-.4-2.41-1.19-3.17-1.87-1.14-3.22-1.14-2.42.38-3.22,1.14-1.19,1.81-1.19,3.17.4,2.36,1.19,3.13,1.87,1.15,3.22,1.15,2.42-.38,3.22-1.15Z"/>
    </g>
  </g>
  <g class="st2">
    <g class="st2">
      <path class="st1" d="M213.98,328.78v4.34c-.55.23-1.15.42-1.8.56-.65.14-1.45.21-2.4.21s-1.82-.12-2.59-.36-1.43-.58-1.96-1.03c-.53-.45-.94-.98-1.21-1.61s-.42-1.32-.42-2.06.15-1.43.45-2.07.72-1.19,1.27-1.66c.55-.46,1.21-.83,2-1.08.79-.26,1.64-.38,2.57-.38.76,0,1.47.07,2.13.22.66.15,1.22.35,1.68.6-.08.44-.28.87-.6,1.3-.32.42-.7.74-1.15.95-.27-.15-.6-.27-.98-.36-.38-.09-.76-.13-1.13-.13-.86,0-1.53.23-2.01.68-.48.46-.72,1.08-.72,1.88s.24,1.4.72,1.87c.48.46,1.13.7,1.96.7.37,0,.7-.01.98-.04v-2.52c.57-.08,1.11-.12,1.61-.12s1.04.04,1.61.12Z"/>
      <path class="st1" d="M220.17,333.53c-.76-.24-1.42-.59-1.97-1.04s-.97-.99-1.28-1.63c-.3-.63-.46-1.33-.46-2.09s.15-1.44.46-2.08c.3-.63.73-1.18,1.28-1.64.55-.46,1.2-.8,1.97-1.05.76-.25,1.58-.37,2.45-.37s1.69.12,2.45.36,1.42.58,1.97,1.03.97.99,1.28,1.63.46,1.35.46,2.12-.15,1.43-.46,2.06c-.3.63-.73,1.18-1.28,1.64s-1.2.81-1.97,1.05-1.58.37-2.45.37-1.69-.12-2.45-.36ZM224.54,330.64c.48-.46.71-1.09.71-1.88s-.24-1.44-.71-1.9c-.48-.46-1.12-.68-1.93-.68s-1.45.23-1.93.68c-.48.46-.71,1.09-.71,1.9s.24,1.42.71,1.88c.48.46,1.12.69,1.93.69s1.45-.23,1.93-.69Z"/>
      <path class="st1" d="M239.9,329.34c.32.24.53.51.65.8.12.3.18.57.18.83,0,.44-.1.84-.29,1.2-.19.36-.49.67-.9.93-.41.26-.95.46-1.62.6-.67.14-1.45.21-2.34.21-.64,0-1.34-.03-2.08-.09-.74-.06-1.38-.13-1.92-.23v-9.47c.54-.09,1.17-.17,1.91-.23.74-.06,1.41-.09,2.02-.09,3.16,0,4.74.95,4.74,2.85,0,1.04-.49,1.74-1.48,2.1.44.14.82.33,1.13.57ZM234.8,325.97v1.77h1.02c.44,0,.76-.08.96-.23.2-.16.3-.39.3-.7,0-.27-.11-.48-.34-.64-.23-.16-.56-.23-1-.23l-.95.03ZM237.45,330.78c0-.3-.12-.54-.37-.71-.24-.18-.62-.26-1.12-.26h-1.16v1.95l1.21.03c.95,0,1.43-.33,1.43-1.01Z"/>
      <path class="st1" d="M243.54,333.6v-9.61c.46-.07.99-.1,1.57-.1s1.11.04,1.64.1v9.61c-.46.07-.99.11-1.57.11s-1.11-.04-1.64-.11Z"/>
      <path class="st1" d="M258.29,332.4c0,.44-.05.84-.14,1.2h-7.97v-9.64h7.81c.09.35.14.75.14,1.19s-.05.84-.14,1.2h-4.59v1.19h4.07c.09.35.14.75.14,1.19s-.05.82-.14,1.17h-4.07v1.32h4.75c.1.35.14.75.14,1.19Z"/>
      <path class="st1" d="M271.17,333.5c-.61.14-1.55.21-2.82.21h-.7s-2.18-3.23-2.18-3.23h-1.02v3.12c-.46.07-.99.11-1.57.11s-1.11-.04-1.64-.11v-9.49c.56-.09,1.22-.17,1.97-.23s1.44-.09,2.07-.09c1.12,0,2.05.12,2.81.35s1.33.58,1.74,1.04.62,1.06.62,1.8c0,.65-.17,1.22-.5,1.71-.33.49-.79.88-1.38,1.17l2.61,3.63ZM264.46,328.29h1.16c.25,0,.5-.04.75-.11.25-.07.44-.2.58-.38.14-.18.21-.39.21-.63,0-.34-.13-.61-.4-.81-.27-.2-.65-.3-1.15-.3l-1.14.03v2.21Z"/>
      <path class="st1" d="M284.03,323.99v9.58c-.98.15-2.02.19-3.13.12l-3.68-4.7-.41-.62.09.77v4.46c-.64.07-1.18.11-1.63.11-.33,0-.86-.04-1.59-.11v-9.56c.39-.09.89-.14,1.5-.16.61-.02,1.15-.01,1.63.03l3.68,4.89.41.62-.09-.77v-4.66c.55-.07,1.07-.1,1.57-.1.56,0,1.11.04,1.64.1Z"/>
      <path class="st1" d="M290.57,333.53c-.76-.24-1.42-.59-1.96-1.04s-.97-.99-1.28-1.63c-.3-.63-.46-1.33-.46-2.09s.15-1.44.46-2.08c.3-.63.73-1.18,1.28-1.64.55-.46,1.2-.8,1.96-1.05.76-.25,1.58-.37,2.45-.37s1.69.12,2.45.36c.76.24,1.42.58,1.96,1.03.55.45.97.99,1.28,1.63s.46,1.35.46,2.12-.15,1.43-.46,2.06c-.3.63-.73,1.18-1.28,1.64-.55.46-1.2.81-1.96,1.05-.76.25-1.58.37-2.45.37s-1.69-.12-2.45-.36ZM294.95,330.64c.48-.46.71-1.09.71-1.88s-.24-1.44-.71-1.9c-.48-.46-1.12-.68-1.93-.68s-1.45.23-1.93.68c-.48.46-.71,1.09-.71,1.9s.24,1.42.71,1.88c.48.46,1.12.69,1.93.69s1.45-.23,1.93-.69Z"/>
      <path class="st1" d="M313.56,324.09c.83.24,1.52.57,2.08,1s.99.95,1.28,1.56c.29.61.44,1.28.44,2,0,.8-.16,1.52-.47,2.17-.31.65-.76,1.19-1.35,1.63-.58.44-1.28.78-2.1,1.01-.82.23-1.71.34-2.67.34-1.5,0-2.83-.06-3.98-.2v-9.61c1.06-.17,2.39-.25,3.98-.25,1.04,0,1.97.12,2.8.35ZM313.04,330.57c.51-.46.77-1.08.77-1.88,0-.74-.26-1.33-.77-1.76-.51-.44-1.21-.65-2.09-.65h-.95v4.97l.95.02c.88,0,1.58-.23,2.09-.68Z"/>
      <path class="st1" d="M328.33,332.4c0,.44-.05.84-.14,1.2h-7.97v-9.64h7.81c.09.35.14.75.14,1.19s-.05.84-.14,1.2h-4.59v1.19h4.07c.1.35.14.75.14,1.19s-.05.82-.14,1.17h-4.07v1.32h4.75c.09.35.14.75.14,1.19Z"/>
      <path class="st1" d="M346.4,323.99v9.58c-.98.15-2.02.19-3.13.12l-3.68-4.7-.41-.62.09.77v4.46c-.64.07-1.18.11-1.62.11-.33,0-.86-.04-1.59-.11v-9.56c.39-.09.89-.14,1.5-.16.61-.02,1.15-.01,1.63.03l3.68,4.89.41.62-.09-.77v-4.66c.55-.07,1.07-.1,1.57-.1.56,0,1.11.04,1.64.1Z"/>
      <path class="st1" d="M352.71,333.62c-.64-.18-1.18-.45-1.63-.8s-.79-.79-1.03-1.31-.36-1.12-.36-1.79v-5.72c.46-.07.99-.1,1.57-.1s1.11.04,1.64.1v5.66c0,.41.1.75.3,1.03.2.28.46.46.77.56.31.09.6.14.88.14.58,0,1.05-.15,1.39-.45.34-.3.52-.73.52-1.28v-5.66c.45-.07.95-.1,1.5-.1s1.11.04,1.64.1v5.62c0,.65-.12,1.24-.38,1.78-.25.54-.6.99-1.05,1.36-.45.37-.99.65-1.63.85-.63.19-1.31.29-2.04.29-.77,0-1.48-.09-2.12-.27Z"/>
      <path class="st1" d="M371.3,332.4c0,.44-.05.84-.14,1.2h-7.97v-9.64h7.81c.1.35.14.75.14,1.19s-.05.84-.14,1.2h-4.59v1.19h4.07c.1.35.14.75.14,1.19s-.05.82-.14,1.17h-4.07v1.32h4.75c.09.35.14.75.14,1.19Z"/>
      <path class="st1" d="M383.25,323.93c.55.04.91.08,1.06.12-.37,1.57-.88,3.16-1.55,4.77-.66,1.61-1.45,3.19-2.37,4.75-.43.07-.98.11-1.64.11s-1.26-.04-1.77-.11c-1.79-3.07-3.1-6.25-3.93-9.52.8-.12,1.64-.18,2.52-.18l1.02.03c.24,1.08.56,2.25.96,3.5.41,1.25.84,2.45,1.3,3.6.42-1.09.81-2.27,1.19-3.54.38-1.27.68-2.46.92-3.56l.79-.03c.44,0,.94.02,1.49.06Z"/>
      <path class="st1" d="M389.66,333.53c-.76-.24-1.42-.59-1.96-1.04-.55-.45-.97-.99-1.28-1.63-.3-.63-.46-1.33-.46-2.09s.15-1.44.46-2.08c.3-.63.73-1.18,1.28-1.64.55-.46,1.2-.8,1.96-1.05.76-.25,1.58-.37,2.45-.37s1.69.12,2.45.36c.76.24,1.42.58,1.96,1.03s.97.99,1.28,1.63c.3.64.46,1.35.46,2.12s-.15,1.43-.46,2.06c-.3.63-.73,1.18-1.28,1.64s-1.2.81-1.96,1.05c-.76.25-1.58.37-2.45.37s-1.69-.12-2.45-.36ZM394.04,330.64c.48-.46.71-1.09.71-1.88s-.24-1.44-.71-1.9c-.48-.46-1.12-.68-1.93-.68s-1.45.23-1.93.68c-.48.46-.71,1.09-.71,1.9s.24,1.42.71,1.88c.48.46,1.12.69,1.93.69s1.45-.23,1.93-.69Z"/>
      <path class="st1" d="M413.72,332.41c0,.44-.05.84-.14,1.19h-7.7v-9.64c.57-.08,1.11-.12,1.61-.12s1.04.04,1.61.12v7.21h4.49c.09.37.14.79.14,1.25Z"/>
      <path class="st1" d="M424.46,332.4c0,.44-.05.84-.14,1.2h-7.97v-9.64h7.81c.1.35.14.75.14,1.19s-.05.84-.14,1.2h-4.59v1.19h4.07c.1.35.14.75.14,1.19s-.05.82-.14,1.17h-4.07v1.32h4.75c.09.35.14.75.14,1.19Z"/>
      <path class="st1" d="M430.36,333.53c-.76-.24-1.42-.59-1.97-1.04-.55-.45-.97-.99-1.28-1.63-.3-.63-.46-1.33-.46-2.09s.15-1.44.46-2.08c.3-.63.73-1.18,1.28-1.64.55-.46,1.2-.8,1.97-1.05.76-.25,1.58-.37,2.45-.37s1.69.12,2.45.36c.76.24,1.42.58,1.97,1.03s.97.99,1.28,1.63c.3.64.46,1.35.46,2.12s-.15,1.43-.46,2.06c-.3.63-.73,1.18-1.28,1.64s-1.2.81-1.97,1.05c-.76.25-1.58.37-2.45.37s-1.69-.12-2.45-.36ZM434.74,330.64c.48-.46.71-1.09.71-1.88s-.24-1.44-.71-1.9c-.48-.46-1.12-.68-1.93-.68s-1.45.23-1.93.68c-.48.46-.71,1.09-.71,1.9s.24,1.42.71,1.88c.48.46,1.12.69,1.93.69s1.45-.23,1.93-.69ZM430.59,322.87c-.12-.2-.19-.4-.21-.6l4.07-2.28c.38.24.68.56.9.95.22.39.33.81.33,1.25l-4.65,1.17c-.18-.13-.33-.3-.45-.5Z"/>
      <path class="st1" d="M452.14,323.99v9.58c-.98.15-2.02.19-3.13.12l-3.68-4.7-.41-.62.09.77v4.46c-.64.07-1.18.11-1.63.11-.33,0-.86-.04-1.59-.11v-9.56c.39-.09.89-.14,1.5-.16.61-.02,1.15-.01,1.63.03l3.68,4.89.41.62-.09-.77v-4.66c.55-.07,1.07-.1,1.57-.1.56,0,1.11.04,1.64.1Z"/>
    </g>
  </g>
  <path class="st0" d="M206.65,298.78h21.55c0,5.23-4.24,9.47-9.47,9.47h-21.55c0-5.23,4.24-9.47,9.47-9.47Z"/>
  <path class="st0" d="M169.01,135.11c-1.19-.59-2.52-.44-3.55.44l-13.46,11.84-13.02-11.69c-1.33-1.33-3.55-1.33-4.88-.15l-13.32,11.25-13.32-11.25c-.89-.89-2.37-1.04-3.4-.44-1.19.44-1.92,1.63-1.92,2.96v28.84c0,2.07,1.63,3.7,3.7,3.7h61.26c2.07,0,3.85-1.63,3.85-3.7v-28.84c0-1.33-.74-2.52-1.92-2.96h-.02Z"/>
  <path class="st1" d="M21.87,139.15v31.46h8.67v-21.94l18.44,21.94h8.27v-35.36h-9.9c-.36,0-.62.36-.5.7l1.73,3.19h0v18.05l-18.45-21.94h-9.49c-.36,0-.62.36-.5.7l1.73,3.19h0Z"/>
  <path class="st1" d="M67.78,139.25v31.22h29.02v-8.12h-19.9v-27.09h-10.24c-.39-.05-.69.32-.57.69l1.69,3.3h0Z"/>
  <path class="st1" d="M95.14,265.73l-17.05-13.13v-26.03c0-3.11,1.26-6.16,3.41-8.31s5.26-3.48,8.38-3.48h12.75l-5.18,5.78c-.9.96-1.41,2.22-1.41,3.56v8.23c0,1.34.51,2.67,1.47,3.63l.15.15,9.79,8.46,3.12,2.75c2.37,2.07,2.58,5.71.51,8.08-.44.53-.89.89-1.49,1.19l-1.85,1.04-12.62,8.08h.02Z"/>
  <polygon class="st1" points="106.57 234.73 103.01 231.62 103.01 224.71 108.21 219 120.15 223.67 120.15 233.17 118.66 234.73 106.57 234.73"/>
  <path class="st1" d="M110.13,304.67l5.71,4.6h7.79c1.92,0,3.48,1.56,3.48,3.48v2.45h-18.47l-18.61-20.61c.59-.98.89-2.09.89-3.2v-3.33l3.11-2.45h14.31c2.39,0,4.24,1.92,4.24,4.22v2.24l-2.75,2.15c-2.81,2.81-2.81,7.42,0,10.23l.3.23h0Z"/>
  <path class="st1" d="M131.79,258.4h-14.24c.81-1.71,1.49-3.57,2-5.42v-1.56h10.39l2.45-3.03c2.37-3.05,4.6-4.31,7.63-4.31h.6v2.45l-8.83,11.88h0Z"/>
  <path class="st1" d="M146.33,256.84h.74l-.15,2.75-8.08,11.34h-20.32l-13.43,7.87-3.63-.15h-7.49c-1.55,0-3.03.51-4.22,1.49l-5.63,4.52v6.16l-12.84,8.08c-2.67,2.15-3.11,6.01-.96,8.68.15.23.3.36.53.59l1.04.96h9.12c1.94,0,3.48,1.56,3.48,3.5v2.45h-15.2l-13.73-11.05v-.15c0-.08,0-.15.08-.23l.23-.23,8.91-10.53c1.26-1.11,1.92-2.75,1.92-4.45v-15.51l13.65-9.93,14.54,11.11,9.34-5.33,8.91-5.42,22.77.08,2.45-3.18c2.45-3.11,4.82-3.41,8-3.41h-.03Z"/>
  <path class="st1" d="M21.87,182.13v144.31c0,9.87,6.73,18.25,16.34,20.38l26.94,5.99c13.79,3.06,25.92,9.34,29.29,11.17l2.36,1.32,2.34-1.31c3.38-1.85,15.51-8.12,29.3-11.19l25.97-5.77c10.2-2.27,17.32-11.14,17.32-21.6v-143.32H21.87v.02ZM87.33,194.61c0-.42.29-.86.65-1.01.36-.21.8-.14,1.16.15l4.54,3.96,4.33-3.89c.5-.44,1.16-.44,1.65,0l4.4,3.74,4.46-3.74c.29-.29.8-.36,1.16-.15.42.23.65.57.65,1.01v8.5c0,.65-.51,1.16-1.16,1.16h-20.59c-.65,0-1.23-.59-1.23-1.31v-8.43h-.02ZM153.89,259.64c0,1.56-.53,3.05-1.49,4.31l-7.19,9.19c-1.64,2.45-2.75,4.16-5.93,4.16h-19.28l-6.31,3.71,2.07,1.26,3.12,3.33c.51,1.34.81,2.75.81,4.22v5.57l-4.82,3.71c-.08.15-.08.3,0,.36l3.48,2.82h5.42c5.78.08,10.45,4.67,10.45,10.45v9.36h-28.4l-21.07-23.37-5.71,3.56h2c5.78.08,10.45,4.67,10.45,10.45v9.51h-24.54l-15.87-12.77-.3-.23c-2.73-2.81-2.81-7.34-.07-10.15l9.13-10.83v-14.99l-2.52-2.45c-6.53-6.59-6.53-17.21,0-23.73l1.19-1.19c1.85-1.86,2.88-4.37,2.88-6.97,0-5.5-4.45-9.87-9.85-9.87h-1.05v4.75c-.06,2.6-2.15,4.75-4.82,4.75h-1.92v-11.86c0-2.6,2.15-4.67,4.75-4.75h2.97c4.37,0,8.67,1.77,11.79,4.9,6.59,6.52,6.59,17.12.08,23.73l-1.19,1.19c-3.86,3.86-3.86,10.09,0,13.94l1.11,1.19,11.34-8.31-3.41-2.58v-29.45c-.07-10.38,8.38-18.83,18.77-18.83h24.77c.3,0,.6.06.83.29.59.53.66,1.34.21,1.94l-2.66,3.48,11.34,4.45c1.56.53,2.6,1.86,2.6,3.48v13.05c0,1.11-.45,2.09-1.19,2.82l-3.18,3.18c-.75.75-1.79,1.19-2.82,1.19h-5.35l.75.68c.81.66,1.49,1.41,2.07,2.3h9.27l.3-.45c3.63-4.75,7.79-6.97,13.05-6.97h7.57v9.42c0,1.19-.3,2.37-.96,3.41h7.34v9.64h-.01Z"/>
</svg>